<svg xmlns="http://www.w3.org/2000/svg" viewBox="0 0 115.79 27.71"><defs><style>.cls-1{fill:#231f20;}</style></defs><g id="Layer_2" data-name="Layer 2"><g id="Layer_1-2" data-name="Layer 1"><path class="cls-1" d="M13.7,3.53H.78V0h19L6.08,23.71H19v3.54H0Z"/><path class="cls-1" d="M27.17,23.29a5,5,0,0,0,3.22.78A5.9,5.9,0,0,0,34.7,22.3c.15-.16.45-.51.9-1.06l3.53,1.26a23.89,23.89,0,0,1-1.88,2.37,9.32,9.32,0,0,1-6.86,2.84,9.33,9.33,0,0,1-6.85-2.84A9.33,9.33,0,0,1,20.7,18a9.35,9.35,0,0,1,2.84-6.87,9.74,9.74,0,0,1,12.88-.77c.28.24.56.5.83.77.12.11.44.47,1,1.07L36.45,14Zm5.89-10.91a5,5,0,0,0-2.67-.46A6.08,6.08,0,0,0,24.32,18a5.1,5.1,0,0,0,.46,2.67Z"/><path class="cls-1" d="M44.47,12.09a6.25,6.25,0,0,1,4.85-2.81V13a4.45,4.45,0,0,0-3.06,1.24,5.74,5.74,0,0,0-1.79,4v9H40.94V9.73h3.53Z"/><path class="cls-1" d="M59.47,8.3a9.29,9.29,0,0,1,6.85,2.84A9.39,9.39,0,0,1,69.16,18a9.37,9.37,0,0,1-2.84,6.86,9.68,9.68,0,0,1-13.7,0A9.34,9.34,0,0,1,49.77,18a9.36,9.36,0,0,1,2.85-6.87A9.33,9.33,0,0,1,59.47,8.3Zm-4.3,5.41A5.88,5.88,0,0,0,53.39,18a6.06,6.06,0,0,0,6.08,6.06A6.06,6.06,0,0,0,65.55,18a5.92,5.92,0,0,0-1.78-4.3,6.06,6.06,0,0,0-8.6,0Z"/><path class="cls-1" d="M96.33,0V3.53H86.74v8.33h9.59v3.52H86.74V27.25H83.21V0Z"/><path class="cls-1" d="M103.31,9.73V27.25H99.78V9.73Zm-3.53-5,3.53,1.19V9.25L99.78,8.06Z"/><path class="cls-1" d="M109.11,9.73V3.15h3.53V9.73h3.15v3.52h-3.15v14h-3.53v-14H106V9.73Z"/></g></g></svg>