<svg xmlns="http://www.w3.org/2000/svg" viewBox="0 0 135.87 151.23"><defs><style>.cls-1{fill:#231f20;}</style></defs><g id="Layer_2" data-name="Layer 2"><g id="Layer_1-2" data-name="Layer 1"><path d="M118.14,1.88H115V0h8.48V1.88h-3.18v8.5h-2.13Z"/><path d="M124.41,0h3.91l1.84,9.84L132,0h3.85V10.38h-2V.55L132,10.38h-3.76L126.41.47v9.91h-2Z"/><path class="cls-1" d="M110.75,37.86a2.41,2.41,0,0,1,2.08,3.63l-38,64.57-10.41,17.7L48.29,151.23H27.8L44,123.76l10.42-17.7,29.71-50.5H0V37.86Z"/><path class="cls-1" d="M60.59,55.56l-29.71,50.5h23.5l29.71-50.5ZM51.15,102H40.72a1.61,1.61,0,0,1-1.39-2.43l23.1-39.24a1.6,1.6,0,0,1,1.38-.79H74.25A1.6,1.6,0,0,1,75.63,62L52.54,101.25A1.62,1.62,0,0,1,51.15,102Z"/><path class="cls-1" d="M115,106.06v17.7H4.22a2.41,2.41,0,0,1-2.08-3.64l38-64.56,10.41-17.7L66.68,10.38H87.17L71,37.86,60.59,55.56l-29.71,50.5Z"/></g></g></svg>