<svg xmlns="http://www.w3.org/2000/svg" viewBox="0 0 281 67.26"><defs><style>.cls-1{fill:#fff;}</style></defs><g id="Layer_2" data-name="Layer 2"><g id="Layer_1-2" data-name="Layer 1"><path class="cls-1" d="M33.24,8.56H1.9V0H48L14.76,57.55H46.18v8.6H0Z"/><path class="cls-1" d="M65.94,56.51c1.43,1.27,4,1.9,7.81,1.9a14.3,14.3,0,0,0,10.46-4.3c.36-.38,1.09-1.24,2.19-2.56L95,54.61a56.57,56.57,0,0,1-4.55,5.75,23.51,23.51,0,0,1-33.28,0,22.73,22.73,0,0,1-6.9-16.66A22.7,22.7,0,0,1,57.13,27a23.58,23.58,0,0,1,31.26-1.86c.68.58,1.36,1.2,2,1.86.28.27,1.06,1.14,2.36,2.6L88.47,34Zm14.3-26.46c-1-.74-3.13-1.11-6.49-1.11A14.75,14.75,0,0,0,59,43.7c0,3.33.38,5.5,1.12,6.49Z"/><path class="cls-1" d="M107.92,29.35q4.78-6.48,11.78-6.82v8.89a10.87,10.87,0,0,0-7.44,3,13.93,13.93,0,0,0-4.34,9.84V66.15H99.36V23.61h8.56Z"/><path class="cls-1" d="M144.32,20.13A22.62,22.62,0,0,1,161,27a22.72,22.72,0,0,1,6.88,16.66A22.75,22.75,0,0,1,161,60.36a23.49,23.49,0,0,1-33.26,0,22.73,22.73,0,0,1-6.9-16.66A22.7,22.7,0,0,1,127.7,27,22.62,22.62,0,0,1,144.32,20.13ZM133.88,33.28a14.24,14.24,0,0,0-4.32,10.42,14.76,14.76,0,0,0,29.52,0,14.75,14.75,0,0,0-25.2-10.42Z"/><path class="cls-1" d="M233.79,0V8.56H210.51V28.77h23.28v8.56H210.51V66.15H202V0Z"/><path class="cls-1" d="M250.72,23.61V66.15h-8.56V23.61Zm-8.56-12.23,8.56,2.88v8.18l-8.56-2.88Z"/><path class="cls-1" d="M264.8,23.61v-16h8.55v16H281v8.55h-7.65v34H264.8v-34h-7.65V23.61Z"/></g></g></svg>